<?xml version="1.0" standalone="no"?><!DOCTYPE svg PUBLIC "-//W3C//DTD SVG 1.1//EN" "http://www.w3.org/Graphics/SVG/1.1/DTD/svg11.dtd"><svg t="1698385211456" class="icon" viewBox="0 0 1024 1024" version="1.1" xmlns="http://www.w3.org/2000/svg" p-id="2184" xmlns:xlink="http://www.w3.org/1999/xlink" width="200" height="200"><path d="M312.48 672H192a32 32 0 0 1 0-64h192a32 32 0 0 1 32 32.16V832a32 32 0 0 1-64 0v-108.16l-144.32 161.472A32 32 0 1 1 160 842.688L312.448 672zM384 416H192a32 32 0 0 1 0-64h120.48L160 181.312a32 32 0 1 1 47.744-42.624L352 300.16V192a32 32 0 0 1 64 0v192a32 32 0 0 1-32 32z m256 192h192a32 32 0 0 1 0 64h-120.48L864 842.688a32 32 0 1 1-47.744 42.624L672 723.84V832a32 32 0 0 1-64 0v-191.84V640a32 32 0 0 1 32-32z m71.52-256H832a32 32 0 0 1 0 64h-192a32 32 0 0 1-32-32.16V192a32 32 0 0 1 64 0v108.16l144.32-161.472A32 32 0 1 1 864 181.312L711.552 352z" fill="#fff" p-id="2185"></path></svg>