<?xml version="1.0" standalone="no"?><!DOCTYPE svg PUBLIC "-//W3C//DTD SVG 1.1//EN" "http://www.w3.org/Graphics/SVG/1.1/DTD/svg11.dtd"><svg t="1698385222553" class="icon" viewBox="0 0 1024 1024" version="1.1" xmlns="http://www.w3.org/2000/svg" p-id="2461" xmlns:xlink="http://www.w3.org/1999/xlink" width="200" height="200"><path d="M1024 512c0 282.771-229.228 512-512 512S0 794.771 0 512 229.229 0 511.999 0C794.772 0 1024 229.227 1024 512zM511.997 76.801c-240.353 0-435.195 194.842-435.195 435.195 0 240.355 194.842 435.197 435.195 435.197 240.355 0 435.197-194.842 435.197-435.197 0-240.351-194.842-435.195-435.197-435.195z" fill="#fff" p-id="2462"></path><path d="M197.68 727.55V308.28h310.874v70.91H282.32v92.98h210.489v70.66h-210.49v114.062h234.256v70.657h-318.86z m629.767 0h-80.352V572.546c0-32.799-1.726-54.027-5.13-63.655a44.565 44.565 0 0 0-16.761-22.435 47.673 47.673 0 0 0-27.892-8.02c-13.915 0-26.36 3.803-37.45 11.458-11.057 7.611-18.67 17.713-22.73 30.306-4.106 12.595-6.155 35.88-6.155 69.781V727.55h-80.353V423.818h74.642v44.62c26.506-34.334 59.853-51.468 100.08-51.468 17.758 0 33.936 3.187 48.611 9.557 14.689 6.405 25.813 14.53 33.321 24.45 7.543 9.92 12.812 21.16 15.734 33.755 2.934 12.595 4.436 30.603 4.436 54.071l-0.001 188.746z" fill="#fff" p-id="2463"></path></svg>